<svg xmlns="http://www.w3.org/2000/svg" viewBox="0 0 24 24" fill="#888"><circle cx="12" cy="8" r="4"/><path d="M4 20c0-4 8-4 8-4s8 0 8 4v2H4v-2z"/></svg><svg xmlns="http://www.w3.org/2000/svg" viewBox="0 0 24 24" fill="#888"><circle cx="11" cy="11" r="8"/><path d="M21 21l-4.35-4.35"/></svg><svg xmlns="http://www.w3.org/2000/svg" viewBox="0 0 24 24" fill="#888"><circle cx="11" cy="11" r="8"/><path d="M21 21l-4.35-4.35"/></svg><svg xmlns="http://www.w3.org/2000/svg" viewBox="0 0 24 24" fill="#888"><circle cx="11" cy="11" r="8"/><path d="M21 21l-4.35-4.35"/></svg><svg xmlns="http://www.w3.org/2000/svg" viewBox="0 0 24 24" fill="#888"><circle cx="11" cy="11" r="8"/><path d="M21 21l-4.35-4.35"/></svg><svg xmlns="http://www.w3.org/2000/svg" viewBox="0 0 24 24" fill="#888"><circle cx="11" cy="11" r="8"/><path d="M21 21l-4.35-4.35"/></svg><svg xmlns="http://www.w3.org/2000/svg" viewBox="0 0 24 24" fill="#888"><circle cx="11" cy="11" r="8"/><path d="M21 21l-4.35-4.35"/></svg><svg xmlns="http://www.w3.org/2000/svg" viewBox="0 0 24 24" fill="#888"><circle cx="11" cy="11" r="8"/><path d="M21 21l-4.35-4.35"/></svg>