<svg width="99" height="67" viewBox="0 0 99 67" fill="none" xmlns="http://www.w3.org/2000/svg">
<path d="M5.472 42.16C4.14933 42.16 3.09333 41.68 2.304 40.72C1.51467 39.76 1.12 38.5013 1.12 36.944C1.12 35.2373 1.51467 33.6267 2.304 32.112C3.09333 30.576 4.13867 29.3493 5.44 28.432C6.76267 27.4933 8.16 27.024 9.632 27.024C10.1013 27.024 10.4107 27.12 10.56 27.312C10.7307 27.4827 10.8693 27.8027 10.976 28.272C11.424 28.1867 11.8933 28.144 12.384 28.144C13.4293 28.144 13.952 28.5173 13.952 29.264C13.952 29.712 13.792 30.7787 13.472 32.464C12.9813 34.9173 12.736 36.624 12.736 37.584C12.736 37.904 12.8107 38.16 12.96 38.352C13.1307 38.544 13.344 38.64 13.6 38.64C14.0053 38.64 14.496 38.384 15.072 37.872C15.648 37.3387 16.4267 36.4853 17.408 35.312C17.664 35.0133 17.952 34.864 18.272 34.864C18.5493 34.864 18.7627 34.992 18.912 35.248C19.0827 35.504 19.168 35.856 19.168 36.304C19.168 37.1573 18.9653 37.8187 18.56 38.288C17.6853 39.376 16.7573 40.2933 15.776 41.04C14.7947 41.7867 13.8453 42.16 12.928 42.16C12.224 42.16 11.5733 41.9253 10.976 41.456C10.4 40.9653 9.96267 40.304 9.664 39.472C8.55467 41.264 7.15733 42.16 5.472 42.16ZM6.624 38.928C7.09333 38.928 7.54133 38.6507 7.968 38.096C8.39467 37.5413 8.704 36.8053 8.896 35.888L10.08 30C9.184 30.0213 8.352 30.3627 7.584 31.024C6.83733 31.664 6.24 32.5173 5.792 33.584C5.344 34.6507 5.12 35.7813 5.12 36.976C5.12 37.6373 5.248 38.128 5.504 38.448C5.78133 38.768 6.15467 38.928 6.624 38.928ZM20.5033 42.16C19.1806 42.16 18.1246 41.68 17.3353 40.72C16.5459 39.76 16.1513 38.5013 16.1513 36.944C16.1513 35.2373 16.5459 33.6267 17.3353 32.112C18.1246 30.576 19.1699 29.3493 20.4713 28.432C21.7939 27.4933 23.1913 27.024 24.6633 27.024C25.1326 27.024 25.4419 27.12 25.5913 27.312C25.7619 27.4827 25.9006 27.8027 26.0073 28.272C26.4553 28.1867 26.9246 28.144 27.4153 28.144C28.4606 28.144 28.9833 28.5173 28.9833 29.264C28.9833 29.712 28.8233 30.7787 28.5033 32.464C28.0126 34.9173 27.7673 36.624 27.7673 37.584C27.7673 37.904 27.8419 38.16 27.9913 38.352C28.1619 38.544 28.3753 38.64 28.6313 38.64C29.0366 38.64 29.5273 38.384 30.1033 37.872C30.6793 37.3387 31.4579 36.4853 32.4393 35.312C32.6953 35.0133 32.9833 34.864 33.3033 34.864C33.5806 34.864 33.7939 34.992 33.9433 35.248C34.1139 35.504 34.1993 35.856 34.1993 36.304C34.1993 37.1573 33.9966 37.8187 33.5913 38.288C32.7166 39.376 31.7886 40.2933 30.8073 41.04C29.8259 41.7867 28.8766 42.16 27.9593 42.16C27.2553 42.16 26.6046 41.9253 26.0073 41.456C25.4313 40.9653 24.9939 40.304 24.6953 39.472C23.5859 41.264 22.1886 42.16 20.5033 42.16ZM21.6553 38.928C22.1246 38.928 22.5726 38.6507 22.9993 38.096C23.4259 37.5413 23.7353 36.8053 23.9273 35.888L25.1113 30C24.2153 30.0213 23.3833 30.3627 22.6153 31.024C21.8686 31.664 21.2713 32.5173 20.8233 33.584C20.3753 34.6507 20.1513 35.7813 20.1513 36.976C20.1513 37.6373 20.2793 38.128 20.5353 38.448C20.8126 38.768 21.1859 38.928 21.6553 38.928ZM47.9825 34.928C48.2598 34.928 48.4732 35.0667 48.6225 35.344C48.7932 35.6 48.8785 35.9307 48.8785 36.336C48.8785 36.8267 48.8038 37.2107 48.6545 37.488C48.5052 37.7653 48.2705 38.0107 47.9505 38.224L41.8065 42.352C40.9958 46.768 39.9292 50.2347 38.6065 52.752C37.3052 55.2907 35.6412 56.56 33.6145 56.56C32.5265 56.56 31.6412 56.2187 30.9585 55.536C30.2758 54.8747 29.9345 54 29.9345 52.912C29.9345 51.9093 30.1585 50.8853 30.6065 49.84C31.0758 48.7947 31.9292 47.5893 33.1665 46.224C34.4252 44.88 36.1958 43.3333 38.4785 41.584L38.5745 40.848C38.7238 40.0587 38.8945 38.928 39.0865 37.456C38.6598 38.992 38.0625 40.1653 37.2945 40.976C36.5265 41.7653 35.7158 42.16 34.8625 42.16C33.9025 42.16 33.1132 41.7227 32.4945 40.848C31.8972 39.952 31.5985 38.8427 31.5985 37.52C31.5985 35.92 31.7052 34.4587 31.9185 33.136C32.1318 31.792 32.4838 30.3733 32.9745 28.88C33.1878 28.24 33.4865 27.7813 33.8705 27.504C34.2545 27.2267 34.8625 27.088 35.6945 27.088C36.1638 27.088 36.4838 27.1627 36.6545 27.312C36.8465 27.4613 36.9425 27.6853 36.9425 27.984C36.9425 28.1547 36.8252 28.7307 36.5905 29.712C36.3772 30.5013 36.2065 31.216 36.0785 31.856C35.9078 32.7307 35.7585 33.5733 35.6305 34.384C35.5025 35.1733 35.4385 35.824 35.4385 36.336C35.4385 37.1467 35.6625 37.552 36.1105 37.552C36.4305 37.552 36.8252 37.232 37.2945 36.592C37.7852 35.952 38.2972 34.9813 38.8305 33.68C39.3852 32.3787 39.9185 30.7787 40.4305 28.88C40.6012 28.24 40.8572 27.7813 41.1985 27.504C41.5612 27.2267 42.0945 27.088 42.7985 27.088C43.2892 27.088 43.6305 27.152 43.8225 27.28C44.0145 27.408 44.1105 27.6213 44.1105 27.92C44.1105 28.4533 43.8332 30.288 43.2785 33.424L42.4465 38.576C44.0892 37.3387 45.6892 36.208 47.2465 35.184C47.5238 35.0133 47.7692 34.928 47.9825 34.928ZM33.9665 53.456C34.4998 53.456 35.0972 52.8373 35.7585 51.6C36.4198 50.3627 37.0812 48.304 37.7425 45.424C36.0998 46.8107 34.9052 48.0693 34.1585 49.2C33.4332 50.352 33.0705 51.3547 33.0705 52.208C33.0705 52.5707 33.1345 52.8693 33.2625 53.104C33.4118 53.3387 33.6465 53.456 33.9665 53.456ZM63.231 32.176C63.5083 32.176 63.7217 32.3147 63.871 32.592C64.0203 32.8693 64.095 33.2213 64.095 33.648C64.095 34.672 63.7857 35.28 63.167 35.472C61.887 35.92 60.479 36.176 58.943 36.24C58.5377 38.032 57.7377 39.472 56.543 40.56C55.3483 41.6267 53.9937 42.16 52.479 42.16C51.199 42.16 50.1003 41.8507 49.183 41.232C48.287 40.6133 47.6043 39.792 47.135 38.768C46.6657 37.744 46.431 36.6347 46.431 35.44C46.431 33.8187 46.7403 32.3787 47.359 31.12C47.9777 29.84 48.831 28.848 49.919 28.144C51.007 27.4187 52.2123 27.056 53.535 27.056C55.1563 27.056 56.4577 27.6213 57.439 28.752C58.4417 29.8613 59.0283 31.2373 59.199 32.88C60.2017 32.816 61.3963 32.6027 62.783 32.24C62.9537 32.1973 63.103 32.176 63.231 32.176ZM52.735 38.768C53.4177 38.768 54.0043 38.4907 54.495 37.936C55.007 37.3813 55.3483 36.5813 55.519 35.536C54.8577 35.088 54.3457 34.5013 53.983 33.776C53.6417 33.0507 53.471 32.2827 53.471 31.472C53.471 31.1307 53.503 30.7893 53.567 30.448H53.407C52.5537 30.448 51.839 30.864 51.263 31.696C50.7083 32.5067 50.431 33.6587 50.431 35.152C50.431 36.3253 50.655 37.2213 51.103 37.84C51.5723 38.4587 52.1163 38.768 52.735 38.768ZM64.7725 24.976C63.8765 24.976 63.2045 24.7733 62.7565 24.368C62.3085 23.9413 62.0845 23.3547 62.0845 22.608C62.0845 21.8613 62.3725 21.2427 62.9485 20.752C63.5458 20.24 64.2818 19.984 65.1565 19.984C65.9458 19.984 66.5858 20.176 67.0765 20.56C67.5672 20.944 67.8125 21.488 67.8125 22.192C67.8125 23.0453 67.5352 23.728 66.9805 24.24C66.4258 24.7307 65.6898 24.976 64.7725 24.976ZM70.5325 34.928C70.8098 34.928 71.0232 35.0667 71.1725 35.344C71.3432 35.6 71.4285 35.9307 71.4285 36.336C71.4285 36.8267 71.3538 37.2107 71.2045 37.488C71.0552 37.7653 70.8205 38.0107 70.5005 38.224C69.0072 39.2053 67.0125 40.56 64.5165 42.288C63.6845 46.7253 62.6072 50.2133 61.2845 52.752C59.9618 55.2907 58.2765 56.56 56.2285 56.56C55.1192 56.56 54.2338 56.2187 53.5725 55.536C52.8898 54.8747 52.5485 54 52.5485 52.912C52.5485 51.3973 53.1352 49.776 54.3085 48.048C55.4818 46.3413 57.6898 44.2293 60.9325 41.712L61.1565 40.08C61.4552 38.032 61.6898 36.016 61.8605 34.032C61.9885 32.88 62.1912 31.1627 62.4685 28.88C62.5538 28.2613 62.7885 27.8133 63.1725 27.536C63.5565 27.2373 64.1432 27.088 64.9325 27.088C65.5725 27.088 65.9885 27.184 66.1805 27.376C66.3938 27.568 66.5005 27.8347 66.5005 28.176C66.5005 29.1573 66.1485 31.8667 65.4445 36.304L65.1245 38.512C66.8312 37.232 68.3885 36.1227 69.7965 35.184C70.0738 35.0133 70.3192 34.928 70.5325 34.928ZM56.5805 53.456C57.1352 53.456 57.7432 52.8267 58.4045 51.568C59.0658 50.3093 59.6845 48.2827 60.2605 45.488C58.6392 46.8747 57.4765 48.1227 56.7725 49.232C56.0472 50.3627 55.6845 51.3547 55.6845 52.208C55.6845 53.04 55.9832 53.456 56.5805 53.456ZM73.097 42.16C71.7743 42.16 70.7183 41.68 69.929 40.72C69.1397 39.76 68.745 38.5013 68.745 36.944C68.745 35.2373 69.1397 33.6267 69.929 32.112C70.7183 30.576 71.7637 29.3493 73.065 28.432C74.3877 27.4933 75.785 27.024 77.257 27.024C77.7263 27.024 78.0357 27.12 78.185 27.312C78.3557 27.4827 78.4943 27.8027 78.601 28.272C79.049 28.1867 79.5183 28.144 80.009 28.144C81.0543 28.144 81.577 28.5173 81.577 29.264C81.577 29.712 81.417 30.7787 81.097 32.464C80.6063 34.9173 80.361 36.624 80.361 37.584C80.361 37.904 80.4357 38.16 80.585 38.352C80.7557 38.544 80.969 38.64 81.225 38.64C81.6303 38.64 82.121 38.384 82.697 37.872C83.273 37.3387 84.0517 36.4853 85.033 35.312C85.289 35.0133 85.577 34.864 85.897 34.864C86.1743 34.864 86.3877 34.992 86.537 35.248C86.7077 35.504 86.793 35.856 86.793 36.304C86.793 37.1573 86.5903 37.8187 86.185 38.288C85.3103 39.376 84.3823 40.2933 83.401 41.04C82.4197 41.7867 81.4703 42.16 80.553 42.16C79.849 42.16 79.1983 41.9253 78.601 41.456C78.025 40.9653 77.5877 40.304 77.289 39.472C76.1797 41.264 74.7823 42.16 73.097 42.16ZM74.249 38.928C74.7183 38.928 75.1663 38.6507 75.593 38.096C76.0197 37.5413 76.329 36.8053 76.521 35.888L77.705 30C76.809 30.0213 75.977 30.3627 75.209 31.024C74.4623 31.664 73.865 32.5173 73.417 33.584C72.969 34.6507 72.745 35.7813 72.745 36.976C72.745 37.6373 72.873 38.128 73.129 38.448C73.4063 38.768 73.7797 38.928 74.249 38.928ZM86.4643 42.16C85.6536 42.16 85.0776 41.7333 84.7363 40.88C84.4163 40.0267 84.2563 38.6613 84.2563 36.784C84.2563 34.0107 84.6509 31.376 85.4403 28.88C85.6323 28.2613 85.9416 27.8133 86.3683 27.536C86.8163 27.2373 87.4349 27.088 88.2243 27.088C88.6509 27.088 88.9496 27.1413 89.1203 27.248C89.2909 27.3547 89.3763 27.5573 89.3763 27.856C89.3763 28.1973 89.2163 28.9653 88.8963 30.16C88.6829 31.0133 88.5123 31.76 88.3843 32.4C88.2563 33.04 88.1496 33.8293 88.0643 34.768C88.7683 32.9333 89.5576 31.44 90.4323 30.288C91.3069 29.136 92.1603 28.3147 92.9923 27.824C93.8456 27.3333 94.6243 27.088 95.3283 27.088C96.0109 27.088 96.5229 27.2693 96.8643 27.632C97.2269 27.9733 97.4083 28.4853 97.4083 29.168C97.4083 29.7227 97.2909 30.768 97.0563 32.304C96.8429 33.6053 96.6723 34.8427 96.5443 36.016C96.4163 37.168 96.3523 38.4587 96.3523 39.888C96.3523 40.6987 96.1816 41.2853 95.8403 41.648C95.5203 41.9893 94.9869 42.16 94.2403 42.16C93.5363 42.16 93.0243 41.9787 92.7043 41.616C92.3843 41.2533 92.2243 40.7093 92.2243 39.984C92.2243 39.1307 92.3736 37.7227 92.6723 35.76C92.9283 34.0533 93.0563 32.9653 93.0563 32.496C93.0563 32.1547 92.9389 31.984 92.7043 31.984C92.4269 31.984 92.0323 32.3467 91.5203 33.072C91.0296 33.776 90.5176 34.7147 89.9843 35.888C89.4723 37.0613 89.0563 38.2987 88.7363 39.6C88.5016 40.6027 88.2243 41.2853 87.9043 41.648C87.6056 41.9893 87.1256 42.16 86.4643 42.16Z" fill="#FF5A60"/>
</svg>
